<svg xmlns="http://www.w3.org/2000/svg" version="1.1" xmlns:xlink="http://www.w3.org/1999/xlink" width="1200" height="1200"><svg width="1200" height="1200" viewBox="0 0 1200 1200" fill="none" xmlns="http://www.w3.org/2000/svg">
<g clip-path="url(#clip0_2_111)">
<rect width="1200" height="1200" rx="600" fill="#EFE2C9"></rect>
<path d="M783.685 665.852C782.436 610.087 771.26 556.544 742.846 507.791C731.878 488.956 718.041 472.088 697.794 462.578C658.343 444.021 621.321 451.679 586.659 475.35C576.038 482.616 566.505 491.478 554.959 500.826C556.602 466.442 557.782 433.469 559.864 400.543C562.965 351.35 566.922 302.18 570.046 252.987C571.087 236.836 565.024 231.121 549.614 233.527C513.541 239.196 477.514 245.259 441.556 251.668C426.146 254.422 421.518 260.6 421.888 276.38C422.374 296.419 424.202 316.434 424.017 336.449C422.814 463.966 421.379 591.507 419.713 719.024C418.788 788.765 417.26 858.505 416.011 928.222C415.756 942.452 419.898 950.828 431.352 953.35C455.347 958.672 479.527 963.346 503.822 967.048C516.618 968.992 523.12 963.069 525.874 950.342C526.614 946.987 526.799 943.54 527.285 939.698C528.974 939.698 529.391 939.583 529.692 939.722C535.615 942.475 541.492 945.321 547.439 948.029C587.862 966.424 627.291 965.059 665.377 941.596C700.756 919.822 726.857 889.418 745.854 852.813C776.35 794.156 785.143 730.918 783.685 665.852ZM650.915 790.431C640.966 816.161 624.537 835.782 595.73 840.78C586.775 842.331 577.172 842.562 568.218 841.151C551.025 838.42 549.545 835.921 549.498 818.521C549.383 766.32 549.984 714.327 549.799 662.219C549.73 643.615 551.396 621.772 564.4 607.519C576.779 593.936 594.781 579.359 614.564 583.2C622.802 584.797 631.34 590.951 637.194 597.361C651.91 613.489 657.834 634.082 661.12 655.138C668.269 700.976 667.899 746.444 650.915 790.431Z" fill="#4E290E"></path>
<path d="M883.172 373.031C887.871 372.458 892.474 374.308 895.839 377.378C899.204 380.447 901.466 384.86 901.324 389.587L901.324 389.589C901.18 394.106 899.246 398.031 896.629 401.448C894.02 404.853 890.661 407.847 887.529 410.501C872.482 423.264 857.42 436.064 842.051 448.484C840.054 450.099 837.996 452.025 835.805 454.062C833.631 456.085 831.338 458.206 828.937 460.142C824.157 463.995 818.742 467.285 812.581 467.603L812.579 467.603C805.015 467.984 800.069 463.575 797.782 457.833C795.529 452.176 795.777 445.102 798.486 439.603L798.488 439.598C798.538 439.498 798.704 439.126 798.922 438.81C802.581 432.168 808.709 427.363 814.347 422.956L841.424 401.799C850.45 394.747 859.477 387.694 868.503 380.642L870.082 379.419C873.842 376.548 878.151 373.649 883.171 373.031L883.172 373.031Z" fill="#4E290E" stroke="#4E290E" stroke-width="3"></path>
<path d="M787.002 313.669C793.179 309.965 802.324 309.373 807.693 314.964C811.63 319.044 812.321 325.186 811.145 330.34C809.974 335.476 807.161 340.015 804.58 344.223L804.579 344.225C791.416 365.622 778.059 386.814 764.226 407.767L764.227 407.767C761.879 411.337 759.036 414.592 755.576 416.619C752.064 418.677 747.973 419.433 743.316 418.07C741.828 417.645 740.454 417.032 739.203 416.31L739.199 416.307C734.003 413.285 730.718 407.824 730.837 401.352L730.837 401.349C731.001 393.27 735.614 386.109 739.731 379.837L739.732 379.835C750.852 362.952 761.944 346.051 773.042 329.17C776.74 323.542 780.831 317.37 787.002 313.669Z" fill="#4E290E" stroke="#4E290E" stroke-width="3"></path>
<path d="M847.741 512.42C853.461 511.551 859.248 510.93 862.464 510.52L862.527 510.512L862.589 510.509C877.695 509.863 890.41 509.039 903.088 508.895L903.092 508.895C907.021 508.86 910.999 509.347 914.257 511.173C917.602 513.047 920.02 516.238 920.946 521.213L920.947 521.216C921.878 526.265 920.962 530.725 918.604 534.077C916.245 537.43 912.537 539.54 908.152 540.048L908.152 540.047C888.051 542.4 867.728 543.518 847.481 543.692L847.481 543.691C843.04 543.738 839.402 541.944 836.922 538.893C834.468 535.873 833.226 531.724 833.297 527.129C833.364 522.506 834.89 519.062 837.575 516.641C840.209 514.265 843.799 513.02 847.741 512.42Z" fill="#4E290E" stroke="#4E290E" stroke-width="3"></path>
</g>
<defs>
<clipPath id="SvgjsClipPath1002">
<rect width="1200" height="1200" fill="white"></rect>
</clipPath>
</defs>
</svg><style>@media (prefers-color-scheme: light) { :root { filter: none; } }
@media (prefers-color-scheme: dark) { :root { filter: none; } }
</style></svg>