<svg xmlns="http://www.w3.org/2000/svg" version="1.1" xmlns:xlink="http://www.w3.org/1999/xlink" width="1200" height="1200"><svg width="1200" height="1200" viewBox="0 0 1200 1200" fill="none" xmlns="http://www.w3.org/2000/svg">
<rect width="1200" height="1200" fill="#EFE2C9"></rect>
<path d="M817.272 677.24C815.797 611.377 802.597 548.137 769.037 490.555C756.083 468.309 739.74 448.386 715.827 437.154C669.231 415.236 625.504 424.282 584.565 452.239C572.021 460.821 560.761 471.288 547.124 482.329C549.065 441.718 550.458 402.774 552.918 363.884C556.58 305.783 561.253 247.708 564.943 189.607C566.173 170.531 559.012 163.781 540.811 166.623C498.205 173.319 455.654 180.479 413.184 188.049C394.983 191.301 389.517 198.598 389.955 217.236C390.528 240.903 392.687 264.543 392.469 288.183C391.048 438.794 389.353 589.432 387.386 740.042C386.292 822.412 384.489 904.782 383.013 987.125C382.712 1003.93 387.604 1013.83 401.132 1016.8C429.472 1023.09 458.031 1028.61 486.727 1032.98C501.84 1035.28 509.519 1028.28 512.772 1013.25C513.646 1009.29 513.865 1005.22 514.439 1000.68C516.434 1000.68 516.926 1000.54 517.281 1000.71C524.277 1003.96 531.219 1007.32 538.242 1010.52C585.986 1032.25 632.555 1030.63 677.539 1002.92C719.325 977.204 750.152 941.294 772.589 898.059C808.609 828.78 818.994 754.089 817.272 677.24ZM660.458 824.38C648.706 854.77 629.303 877.945 595.278 883.848C584.702 885.679 573.36 885.952 562.784 884.285C542.478 881.06 540.729 878.109 540.675 857.557C540.538 795.903 541.248 734.494 541.03 672.949C540.948 650.977 542.916 625.178 558.275 608.343C572.896 592.301 594.158 575.084 617.524 579.62C627.253 581.506 637.338 588.776 644.252 596.346C661.633 615.394 668.629 639.717 672.51 664.587C680.955 718.726 680.518 772.427 660.458 824.38Z" fill="#4E290E"></path>
<path d="M934.809 331.659C940.267 330.994 945.627 333.142 949.554 336.724C953.481 340.307 956.108 345.445 955.943 350.935L955.943 350.938C955.776 356.197 953.524 360.78 950.455 364.788C947.393 368.785 943.443 372.303 939.746 375.437L939.747 375.438C921.974 390.513 904.187 405.629 886.037 420.297C883.67 422.211 881.231 424.493 878.646 426.897C876.077 429.286 873.377 431.786 870.549 434.065C864.916 438.606 858.576 442.447 851.387 442.817L851.385 442.818C842.588 443.26 836.841 438.144 834.175 431.449C831.542 424.838 831.832 416.563 834.998 410.138L835 410.133C835.068 409.996 835.255 409.575 835.5 409.224C839.789 401.43 846.983 395.784 853.653 390.571L853.654 390.571C864.314 382.241 874.974 373.911 885.635 365.582C896.296 357.252 906.956 348.922 917.617 340.593L917.618 340.593C922.497 336.784 928.117 332.483 934.807 331.659L934.809 331.659Z" fill="#4E290E" stroke="#4E290E" stroke-width="3"></path>
<path d="M821.329 261.511C828.563 257.173 839.215 256.516 845.437 262.998L845.436 262.999C849.998 267.729 850.816 274.875 849.44 280.907C848.068 286.922 844.773 292.246 841.72 297.224L841.718 297.226C826.173 322.496 810.398 347.523 794.062 372.268C791.301 376.466 787.97 380.273 783.934 382.638C779.844 385.035 775.086 385.915 769.657 384.322L769.657 384.321C767.927 383.827 766.328 383.112 764.871 382.271L764.866 382.268C758.813 378.747 754.987 372.388 755.125 364.845L755.125 364.842C755.316 355.391 760.715 346.997 765.585 339.577L765.586 339.575C778.72 319.636 791.822 299.672 804.929 279.734C809.303 273.078 814.103 265.845 821.329 261.511Z" fill="#4E290E" stroke="#4E290E" stroke-width="3"></path>
<path d="M892.969 496.292C899.721 495.265 906.546 494.533 910.352 494.047L910.414 494.04L910.477 494.037C928.325 493.272 943.332 492.301 958.301 492.131L958.305 492.131C962.928 492.09 967.57 492.664 971.357 494.786C975.231 496.957 978.043 500.653 979.123 506.458L979.124 506.46C980.212 512.364 979.139 517.554 976.402 521.444C973.665 525.336 969.357 527.792 964.248 528.384L964.248 528.383C940.517 531.16 916.525 532.481 892.619 532.686L892.619 532.685C887.454 532.739 883.236 530.656 880.361 527.118C877.51 523.611 876.057 518.777 876.14 513.399C876.218 508.002 877.995 504.009 881.102 501.208C884.158 498.452 888.339 496.996 892.969 496.292Z" fill="#4E290E" stroke="#4E290E" stroke-width="3"></path>
</svg><style>@media (prefers-color-scheme: light) { :root { filter: none; } }
@media (prefers-color-scheme: dark) { :root { filter: none; } }
</style></svg>