<svg xmlns="http://www.w3.org/2000/svg" version="1.1" xmlns:xlink="http://www.w3.org/1999/xlink" width="1000" height="1000"><g clip-path="url(#SvgjsClipPath1070)"><rect width="1000" height="1000" fill="#f3d025"></rect><g transform="matrix(0.8111239860950173,0,0,0.8111239860950173,324.79721900347624,150)"><svg xmlns="http://www.w3.org/2000/svg" version="1.1" xmlns:xlink="http://www.w3.org/1999/xlink" width="432" height="863"><svg width="432" height="863" viewBox="0 0 432 863" fill="none" xmlns="http://www.w3.org/2000/svg">
<path d="M431.822 508.64C430.355 443.112 417.229 380.194 383.858 322.905C370.977 300.772 354.727 280.95 330.949 269.775C284.616 247.968 241.136 256.968 200.428 284.784C187.954 293.322 176.758 303.735 163.198 314.72C165.128 274.316 166.513 235.57 168.959 196.878C172.601 139.072 177.248 81.293 180.916 23.4867C182.139 4.50802 175.019 -2.20795 156.921 0.619821C114.555 7.28141 72.2438 14.4052 30.014 21.9369C11.9155 25.1725 6.4805 32.4323 6.9153 50.9759C7.48598 74.5226 9.63283 98.0421 9.41543 121.562C8.00234 271.406 6.31749 421.278 4.3609 571.123C3.2739 653.074 1.48034 735.026 0.0128977 816.949C-0.286026 833.671 4.57829 843.514 18.0299 846.478C46.2102 852.732 74.608 858.224 103.142 862.574C118.169 864.858 125.805 857.898 129.039 842.943C129.909 839.001 130.126 834.949 130.697 830.436C132.681 830.436 133.17 830.3 133.523 830.463C140.48 833.698 147.382 837.043 154.366 840.224C201.841 861.84 248.147 860.236 292.877 832.665C334.427 807.079 365.08 771.351 387.391 728.337C423.208 659.41 433.534 585.099 431.822 508.64ZM275.892 655.032C264.207 685.267 244.913 708.325 211.08 714.198C200.564 716.02 189.286 716.292 178.769 714.633C158.578 711.424 156.839 708.488 156.785 688.041C156.649 626.7 157.356 565.604 157.138 504.371C157.057 482.511 159.013 456.843 174.286 440.094C188.824 424.133 209.966 407.004 233.201 411.517C242.875 413.393 252.902 420.626 259.778 428.158C277.061 447.109 284.018 471.308 287.877 496.051C296.274 549.915 295.839 603.344 275.892 655.032Z" fill="black"></path>
</svg></svg></g></g><defs><clipPath id="SvgjsClipPath1070"><rect width="1000" height="1000" x="0" y="0" rx="500" ry="500"></rect></clipPath></defs></svg>